<svg width="540" height="428.9999999999999" xmlns="http://www.w3.org/2000/svg" xmlns:xlink="http://www.w3.org/1999/xlink" version="1.1">
  <title>编组 35</title>
  <defs>
    <path d="m732.47428,0.93866c5.29859,-0.02439 8.87344,0.33356 10.72454,1.07384c6.10545,2.44163 7.89429,8.44489 9.02463,10.0472c2.46335,3.49192 2.46335,8.09635 9.80883,16.14474c3.79051,4.15323 9.02066,7.32253 15.69045,9.5079l94.27727,-0.0004l0,384.71806c0,4.41828 -3.58172,8 -8,8l-856,0c-4.41828,0 -8,-3.58172 -8,-8l0,-376.71806c0,-4.41827 3.58172,-8 8,-8l620.289,-0.00045l0.00082,-25.65179c0,-5.41499 3.82549,-9.08808 11.47648,-11.01925l0.41354,-0.10179l92.29444,0z" id="path-1" />
    <filter x="-2.4%" y="-4.4%" width="104.4%" height="108.8%" filterUnits="objectBoundingBox" id="filter-2">
      <feGaussianBlur stdDeviation="6" in="shadowOffsetOuter1" result="shadowBlurOuter1" />
    </filter>
  </defs>
  <g>
    <title>Layer 1</title>
    <g stroke="null" id="后台" fill="none" fill-rule="evenodd">
      <g stroke="null" id="经营分析——弹框">
        <g stroke="null" id="编组-26">
          <g stroke="null" id="编组-17">
            <g stroke="null" id="编组-35">
              <path stroke="null" d="m435.59558,1.55223l92.4476,0c7.93984,1.91084 11.90975,5.6344 11.90975,11.17072c0,5.5363 0,14.68195 0,27.43692l-155.90016,0c9.7187,-2.09048 17.03062,-5.83051 21.93574,-11.22007c7.35767,-8.08434 7.35767,-12.70934 9.82511,-16.21685c1.13221,-1.60947 2.92403,-7.63954 9.03961,-10.09208c1.85417,-0.74358 5.43495,-1.10313 10.74235,-1.07864z" id="路径-43" fill="#EDF5FC" />
              <g stroke="null" id="形状结合">
                <use stroke="null" fill="rgba(0,0,0,0.15)" filter="url(#filter-2)" xlink:href="#path-1" y="1.55106" x="-333.13549" id="svg_1" transform="matrix(1.00166 0 0 1.00447 0.552872 -0.00692839)" />
                <use stroke="null" fill="#FFFFFF" fill-rule="evenodd" xlink:href="#path-1" y="1.55106" x="-333.13549" id="svg_2" transform="matrix(1.00166 0 0 1.00447 0.552872 -0.00692839)" />
              </g>
              <g stroke="null" id="表格选中" transform="translate(683 12) scale(0.02 0.02)">
                <rect stroke="null" id="矩形" fill="#000000" fill-rule="nonzero" opacity="0" x="-16656.77345" y="77.55259" width="20.0332" height="20.08934" />
                <path stroke="null" d="m-15816.01042,955.28589l-655.82661,0c-66.62038,0 -120.81016,-54.34166 -120.81016,-121.14875l0,-403.09256c0,-9.56252 7.7228,-17.30696 17.2586,-17.30696s17.2586,7.74444 17.2586,17.30696l0,403.09256c0,47.71218 38.71415,86.53482 86.29297,86.53482l655.81659,0c47.57883,0 86.29297,-38.82265 86.29297,-86.53482l0,-403.09256c0,-9.56252 7.7228,-17.30696 17.2586,-17.30696s17.2586,7.74444 17.2586,17.30696l0,403.09256c0.01002,66.80709 -54.18978,121.14875 -120.80014,121.14875l-0.00002,0zm-327.90329,-320.57561c-14.31371,0 -28.367,-4.60046 -39.56556,-12.93753l-385.2483,-287.37798c-21.4255,-15.98107 -29.46883,-42.91082 -20.0432,-67.01803c9.11511,-23.31367 33.0748,-38.98336 59.60876,-38.98336l770.47657,0c26.54398,0 50.49366,15.66968 59.60876,38.99341c9.42562,24.09716 1.38229,51.03696 -20.0432,67.01803l-385.23828,287.36794c-11.18853,8.33708 -25.24182,12.93753 -39.55554,12.93753l-0.00001,-0.00001zm-385.23828,-371.70297c-12.45063,0 -23.49893,6.84042 -27.47552,17.01567c-3.73619,9.53239 -0.40067,19.97885 8.50409,26.60833l385.22827,287.36794c10.56751,7.85493 27.39539,7.85493 37.94287,0l385.23828,-287.36794c8.88472,-6.62948 12.22025,-17.07594 8.49408,-26.60833c-3.97659,-10.18529 -15.01487,-17.01567 -27.47552,-17.01567l-770.45653,0l-0.00001,0zm799.73504,57.50573l0.17028,0l-0.17028,0z" p-id="3596" fill="#1890ff" id="svg_3" />
              </g>
              <g stroke="null" id="编组-11" transform="translate(807 11) scale(0.02 0.02)">
                <rect stroke="null" id="矩形" x="-16656.77345" y="77.55259" width="20.0332" height="20.08934" />
                <g stroke="null" id="tubiao-zhuzhuangtu" fill="#95CAFB" fill-rule="nonzero">
                  <path stroke="null" d="m-15855.723,256.12947c0,-60.84725 -49.18791,-110.17303 -109.8651,-110.17303l-355.29731,0c-60.6772,0 -109.8651,49.32578 -109.8651,110.17303l0,676.99075c0,60.84724 49.18791,110.17302 109.8651,110.17302l355.29731,0c60.6772,0 109.8651,-49.32578 109.8651,-110.17302l0,-676.99076l0,0.00001zm-535.05234,62.51034l495.07716,0l0,531.41252l-495.07716,0l0,-531.41252zm69.91453,-132.59616l355.24913,0c38.61295,0 69.91453,31.38932 69.91453,70.11047l0,22.39848l-495.07716,0l0,-22.39848c-0.00102,-38.72013 31.30056,-70.11047 69.91351,-70.11047zm355.24913,817.16237l-355.24913,0c-38.61295,0 -69.91453,-31.38931 -69.91453,-70.11047l0,-43.98389l495.07716,0l0,43.98389c0,38.72116 -31.30158,70.11047 -69.91351,70.11047z" id="svg_4" />
                  <path stroke="null" d="m-16141.74639,914.21653c-16.73524,0 -30.3514,13.65432 -30.3514,30.43647c0,16.78215 13.61616,30.43647 30.3514,30.43647s30.34935,-13.65432 30.34935,-30.43647c0,-16.78215 -13.61411,-30.43647 -30.34935,-30.43647z" id="svg_5" />
                </g>
              </g>
            </g>
          </g>
        </g>
      </g>
    </g>
  </g>
</svg>