<svg width="540" height="429" xmlns="http://www.w3.org/2000/svg" xmlns:xlink="http://www.w3.org/1999/xlink" version="1.1">
 <title>编组 34</title>
 <defs>
  <path d="m767.4574,0.00124l92.29443,0c7.92668,2.02919 11.89002,5.98337 11.89002,11.86256l-0.00085,28.5662l0.359,0.00099l0,382c0,4.41828 -3.58172,8 -8,8l-856,0c-4.41828,0 -8,-3.58172 -8,-8l0,-374c0,-4.41828 3.58172,-8 8,-8l710.29128,0.00023c8.56838,-2.30044 15.10442,-6.0825 19.60811,-11.34619c7.34548,-8.58503 7.34548,-13.49647 9.80883,-17.22123c1.13034,-1.70914 2.91918,-8.11268 9.02463,-10.71712c1.8511,-0.78963 5.42595,-1.17145 10.72455,-1.14544z" id="path-1"/>
  <filter x="-2.4%" y="-4.4%" width="104.4%" height="108.8%" filterUnits="objectBoundingBox" id="filter-2">
   <feGaussianBlur stdDeviation="6" in="shadowOffsetOuter1" result="shadowBlurOuter1"/>
  </filter>
 </defs>
 <g>
  <title>Layer 1</title>
  <g stroke="null" id="后台" fill="none" fill-rule="evenodd">
   <g stroke="null" id="经营分析——弹框">
    <g stroke="null" id="编组-24">
     <g stroke="null" id="编组-34">
      <path stroke="null" d="m399.47405,2.06487l-92.54954,0c-7.94859,2.07293 -11.92289,6.11235 -11.92289,12.11828c0,6.00594 0,15.92736 0,29.7643l156.07204,0c-9.72942,-2.26781 -17.04939,-6.32508 -21.95992,-12.17182c-7.36578,-8.7701 -7.36578,-13.78741 -9.83595,-17.59247c-1.13346,-1.74599 -2.92725,-8.28757 -9.04956,-10.94815c-1.85622,-0.80665 -5.44096,-1.1967 -10.75419,-1.17014l0.00001,0z" id="路径-43" fill="#EDF5FC"/>
      <g stroke="null" id="形状结合">
       <use stroke="null" fill="rgba(0,0,0,0.15)" filter="url(#filter-2)" xlink:href="#path-1" y="1.66684" x="-335.01253" id="svg_1" transform="matrix(1.00277 0 0 1.02156 0.913786 -0.660729)"/>
       <use stroke="null" fill="#FFFFFF" fill-rule="evenodd" xlink:href="#path-1" y="1.66684" x="-335.01253" id="svg_2" transform="matrix(1.00277 0 0 1.02156 0.913786 -0.660729)"/>
      </g>
      <g stroke="null" id="表格选中" transform="translate(673 12) scale(0.02 0.02)" fill="#95CAFB">
       <rect stroke="null" id="矩形" fill-rule="nonzero" opacity="0" x="-16751.23442" y="52.10413" width="20.05528" height="20.43115"/>
       <path stroke="null" d="m-15909.54443,944.7715l-656.54968,0c-66.69384,0 -120.94336,-55.26625 -120.94336,-123.21002l0,-409.95093c0,-9.72523 7.73131,-17.60143 17.27762,-17.60143s17.27762,7.87621 17.27762,17.60143l0,409.95093c0,48.52397 38.75683,88.00715 86.38812,88.00715l656.53966,0c47.63129,0 86.38812,-39.48318 86.38812,-88.00715l0,-409.95093c0,-9.72523 7.73131,-17.60143 17.27762,-17.60143s17.27762,7.87621 17.27762,17.60143l0,409.95093c0.01003,67.94377 -54.24953,123.21002 -120.93334,123.21002zm-328.26481,-326.02999c-14.3295,0 -28.39827,-4.67873 -39.60917,-13.15766l-385.67305,-292.26753c-21.44912,-16.25297 -29.50131,-43.64093 -20.06531,-68.1583c9.12515,-23.71035 33.11126,-39.64664 59.67448,-39.64664l771.32605,0c26.57325,0 50.54934,15.93629 59.67448,39.65686c9.43601,24.50716 1.38382,51.90533 -20.06531,68.1583l-385.66303,292.25731c-11.20087,8.47892 -25.26965,13.15766 -39.59914,13.15766zm-385.66303,-378.02726c-12.46435,0 -23.52484,6.95681 -27.50581,17.30518c-3.74031,9.69458 -0.4011,20.31877 8.51347,27.06105l385.653,292.25731c10.57916,7.98858 27.4256,7.98858 37.9847,0l385.66303,-292.25731c8.89451,-6.74228 12.23372,-17.36648 8.50344,-27.06105c-3.98097,-10.3586 -15.03143,-17.30518 -27.50581,-17.30518l-771.30599,0l-0.00002,0zm800.61678,58.48415l0.17047,0l-0.17047,0z" p-id="3596" fill="#1890ff" id="svg_3"/>
      </g>
      <g stroke="null" id="编组-11" transform="translate(797 11) scale(0.02 0.02)">
       <rect stroke="null" id="矩形" x="-16751.23442" y="52.10413" width="20.05528" height="20.43115"/>
       <g stroke="null" id="tubiao-zhuzhuangtu" fill="#1890FF" fill-rule="nonzero">
        <path stroke="null" d="m-15949.30078,233.71939c0,-61.88253 -49.24214,-112.04755 -109.98623,-112.04755l-355.68903,0c-60.7441,0 -109.98623,50.16502 -109.98623,112.04755l0,688.50931c0,61.88252 49.24214,112.04754 109.98623,112.04754l355.68903,0c60.7441,0 109.98623,-50.16502 109.98623,-112.04754l0,-688.50932l0,0.00001zm-535.64225,63.57392l495.623,0l0,540.45416l-495.623,0l0,-540.45416zm69.99161,-134.8522l355.6408,0c38.65552,0 69.99161,31.92339 69.99161,71.30336l0,22.77957l-495.623,0l0,-22.77957c-0.00103,-39.37892 31.33507,-71.30336 69.99059,-71.30336zm355.6408,831.06587l-355.6408,0c-38.65552,0 -69.99161,-31.92338 -69.99161,-71.30336l0,-44.73226l495.623,0l0,44.73226c0,39.37998 -31.33609,71.30336 -69.99059,71.30336z" id="svg_4"/>
        <path stroke="null" d="m-16235.63953,903.00338c-16.7537,0 -30.38487,13.88665 -30.38487,30.95433c0,17.06768 13.63117,30.95433 30.38487,30.95433s30.38281,-13.88665 30.38281,-30.95433c0,-17.06768 -13.62912,-30.95433 -30.38281,-30.95433z" id="svg_5"/>
       </g>
      </g>
     </g>
    </g>
   </g>
  </g>
 </g>
</svg>